<svg width="1000" height="1000" viewBox="0 0 1000 1000" fill="none" xmlns="http://www.w3.org/2000/svg">
<path fill-rule="evenodd" clip-rule="evenodd" d="M203.516 513.135C201.433 514.362 199.228 515.731 196.986 517.123C192.669 519.803 188.201 522.576 184.152 524.62C189.777 531.089 230.925 554.551 240.124 559.087C311.419 594.219 386.942 626.397 467.29 631.187C508.242 633.628 554.101 624.258 585.756 596.495C610.278 574.991 625.751 543.218 627.788 510.694C629.267 483.997 618.491 451.988 601.015 431.604C592.157 421.273 583.124 415.229 573.547 408.82C569.061 405.819 564.455 402.737 559.692 399.097C564.297 399.591 568.905 400.774 573.444 401.938C574.708 402.263 575.969 402.586 577.221 402.893C616.801 412.575 665.922 436.481 691.914 468.559C699.726 478.201 704.56 488.916 703.242 501.465C699.667 535.381 657.084 573.575 631.391 594.087C618.12 604.678 604.14 613.438 589.34 621.719C588.565 622.153 587.787 622.589 587.012 623.023C580.53 626.657 574.028 630.301 567.304 633.467C544.79 644.068 517.861 652.12 493.056 654.068C487.53 654.505 481.893 654.457 476.31 654.409C474.792 654.396 473.277 654.384 471.77 654.38C470.619 654.378 469.462 654.379 468.306 654.38C460.458 654.387 452.482 654.393 444.717 653.521C402.887 648.824 362.048 635.855 323.255 619.942C318.483 617.982 313.777 615.862 309.074 613.744C305.94 612.333 302.806 610.921 299.652 609.556L298.703 609.146C280.411 601.24 261.713 593.158 244.036 584.014C243.838 583.89 243.659 583.777 243.494 583.672C242.05 582.756 241.676 582.519 239.739 582.124L238.735 582.457C238.217 584.286 239.545 587.066 240.566 589.206C240.761 589.613 240.944 589.997 241.102 590.347C281.544 695.879 380.099 777.334 479.598 824.576C482.096 825.762 484.626 827.055 487.16 828.35C490.562 830.089 493.972 831.831 497.324 833.326C498.33 833.765 499.345 834.17 500.38 834.542C514.181 831.194 531.289 821.659 545.649 813.656L545.669 813.645C549.021 811.777 552.224 809.992 555.2 808.389C658.461 752.759 739.848 667.74 773.09 553.14C767.607 557.119 761.868 560.865 756.147 564.6C747.553 570.21 739.001 575.793 731.42 582.095C728.781 584.289 722.886 596.009 719.448 602.844C718.593 604.545 717.889 605.943 717.426 606.817C679.697 678.013 619.628 732.691 550.634 773.018C550.366 773.175 550.063 773.352 549.727 773.55C549.305 773.798 548.829 774.078 548.308 774.384C537.85 780.539 508.659 797.716 502.68 797.779C502.539 796.475 502.532 795.035 502.526 793.616C502.519 792.236 502.512 790.875 502.382 789.678C500.986 776.977 502.611 776.23 510.205 772.741C511.717 772.047 513.465 771.243 515.473 770.215C519.77 768.541 526.738 764.996 530.878 762.798C591.474 730.743 643.72 684.942 683.432 629.063C692.265 616.392 703.647 598.355 708.203 583.482C711.049 578.542 718.188 574.003 724.514 569.981C727.229 568.255 729.794 566.624 731.806 565.098C734.584 562.991 737.373 560.891 740.162 558.789C755.872 546.956 771.636 535.083 785.991 521.631C789.214 518.611 792.214 515.355 795.209 512.104C798.048 509.022 800.883 505.945 803.901 503.077C762.421 470.562 720.19 439.364 671.865 418.188C668.702 416.802 665.582 415.253 662.456 413.7C659.101 412.033 655.737 410.363 652.304 408.886C596.127 384.727 535.786 370.652 474.403 377.802C436.001 382.272 399.958 394.852 365.277 411.545C330.62 428.227 299.119 449.789 267.601 471.363C246.562 485.764 225.515 500.171 203.516 513.135ZM321.429 553.868C344.205 580.166 389.924 601.773 423.304 609.234C424.665 607.883 425.824 607.566 426.904 607.272C428.01 606.97 429.033 606.691 430.105 605.347C425.42 603.399 417.996 597.842 414.043 594.644C393.333 577.881 375.032 547.149 372.367 520.625C371.368 520.069 370.681 519.683 370.333 518.536C367.437 509.004 368.006 501.377 371.708 492.579C371.946 491.553 372.296 488.965 372.65 486.352C372.959 484.064 373.272 481.755 373.514 480.458C376.74 463.17 381.742 452.308 390.49 437.091C389.831 435.702 388.821 435.006 387.619 434.177C387.369 434.005 387.11 433.827 386.845 433.635L386.264 434.079C372.223 444.8 360.802 453.519 348.744 466.437C329.101 487.48 296.634 525.24 321.429 553.868ZM480.083 435.944C491.85 434.645 512.382 434.674 524.291 435.516C524.471 442.999 524.458 450.497 524.445 457.986C524.433 464.965 524.421 471.936 524.565 478.883C530.961 478.919 537.434 478.886 543.897 478.854C551.647 478.814 559.393 478.775 567.006 478.855C566.91 485.805 566.944 492.832 566.979 499.843C567.021 508.427 567.064 516.998 566.865 525.401C559.424 526.078 550.697 525.928 542.093 525.779C535.995 525.674 529.959 525.57 524.487 525.762C524.384 538.243 524.399 550.723 524.531 563.204C518.879 563.53 513.244 563.465 507.631 563.399C502.838 563.344 498.061 563.288 493.3 563.477C490.572 563.252 486.942 563.208 483.639 563.169C482.29 563.153 480.996 563.138 479.84 563.111C479.955 559.908 479.937 557.071 479.877 553.863L480.106 525.411C465.396 525.616 450.685 525.743 435.973 525.796C436.537 514.273 436.62 494.332 436.104 482.937C436.157 482.504 436.187 482.105 436.214 481.731C436.3 480.566 436.367 479.649 437.064 478.736L438.272 478.76C451.533 479.023 467.182 479.333 480.224 478.666C480.224 474.101 480.152 468.974 480.078 463.709C479.942 454.086 479.8 443.984 480.083 435.944ZM569.707 448.728C577.919 449.329 585.092 449.758 593.32 449.834C593.911 460.256 593.588 470.483 593.232 480.908C587.296 481.015 580.814 480.75 574.606 480.496C572.849 480.425 571.113 480.354 569.418 480.292C569.575 476.009 569.516 471.218 569.457 466.424C569.38 460.158 569.303 453.886 569.707 448.728Z" fill="#162D63"/>
<path d="M502.758 659.795C515.312 659.136 528.31 656.749 540.776 654.957C560.6 651.866 580.112 645.718 599.189 639.375C635.214 627.398 669.301 606.641 700.141 584.795C701.899 583.55 706.074 582.73 708.203 583.482C703.647 598.355 692.265 616.392 683.432 629.063C643.72 684.942 591.474 730.743 530.878 762.798C526.738 764.996 519.77 768.541 515.473 770.215L515.405 769.39C511.538 769.244 505.82 774.4 503.828 774.742L503.334 774.375C503.847 767.481 503.94 757.662 503.027 750.811C502.822 720.425 503.198 690.24 502.758 659.795Z" fill="#2768B1"/>
<path d="M487.768 768.809C485.988 779.654 480.23 781.358 469.998 780.01L469.499 780.723L468.663 780.025C468.688 780.103 468.712 780.181 468.736 780.259C473.542 783.516 478.041 786.685 483.567 788.726C485.435 789.415 488.403 790.635 489.721 792.022C484.593 791.768 429.806 759.258 420.219 753.111C405.792 743.868 382.558 722.217 368.308 710.738C365.219 708.248 356.359 698.082 353.084 694.507C338.283 678.335 322.942 662.027 311.219 643.428C308.956 639.83 301.557 629.097 300.851 625.386L301.171 625.044C302.458 626.133 302.164 626.827 302.651 628.917C302.188 628.809 303.585 629.253 303.72 629.083C305.277 627.105 309.413 627.042 312.383 626.709C310.796 626.431 307.163 624.517 306.151 623.453C311.283 623.819 313.534 625.567 319.274 625.503L320.051 625.489C323.876 629.112 328.078 632.808 331.59 636.69C335.431 640.933 338.827 645.84 342.545 650.22C365.076 676.758 391.535 699.751 418.735 721.358C422.241 723.746 425.626 728.423 429.098 730.586C444.426 740.152 459.726 751.104 474.953 760.66C477.026 764.102 483.63 768.965 487.768 768.809Z" fill="#1A5EA8"/>
<path d="M503.027 750.811C503.94 757.662 503.847 767.481 503.334 774.375L503.828 774.742C505.82 774.4 511.538 769.244 515.405 769.39L515.473 770.215C503.378 776.407 500.708 774.449 502.382 789.678C502.646 792.105 502.402 795.206 502.68 797.779L501.899 797.339C499.887 792.588 501.84 780.577 501.904 775.479C498.759 773.648 491.279 768.775 488.281 768.121L487.768 768.809C483.63 768.965 477.026 764.102 474.953 760.66C484.999 764.473 493.242 769.268 502.207 775.005C503.325 768.453 503.007 757.754 503.027 750.811Z" fill="#203875"/>
<path d="M241.102 590.347C240.117 588.16 238.119 584.634 238.735 582.457L239.739 582.124C241.897 582.564 242.115 582.808 244.036 584.014C243.773 586.192 243.299 587.369 241.52 588.892L241.57 589.639L241.102 590.347Z" fill="#152759"/>
<path fill-rule="evenodd" clip-rule="evenodd" d="M480.078 463.709C480.083 464.039 480.087 464.365 480.092 464.693C480.087 464.366 480.083 464.037 480.078 463.709ZM436.104 482.937C436.092 482.587 436.086 482.26 436.08 481.949C436.05 480.286 436.028 479.106 435.086 477.536L434.691 477.506C433.124 479.977 433.64 492.166 433.997 500.614C434.125 503.639 434.233 506.184 434.218 507.632C434.208 508.564 434.19 509.583 434.172 510.655C434.094 515.209 434 520.723 434.392 524.625C434.672 524.905 434.835 525.096 434.952 525.235C435.225 525.558 435.256 525.595 435.973 525.796C436.537 514.273 436.62 494.332 436.104 482.937Z" fill="white"/>
<path d="M435.973 525.796C434.949 525.508 435.325 525.557 434.392 524.625C433.908 519.805 434.166 512.525 434.218 507.632C434.276 502.139 432.562 480.862 434.691 477.506L435.086 477.536C436.204 479.399 436.026 480.712 436.104 482.937C436.62 494.332 436.537 514.273 435.973 525.796Z" fill="#152759"/>
<path fill-rule="evenodd" clip-rule="evenodd" d="M372.367 520.625C371.308 509.537 371.398 503.804 371.708 492.579C368.006 501.377 367.437 509.004 370.333 518.536C370.681 519.683 371.368 520.069 372.367 520.625Z" fill="white"/>
<path d="M371.708 492.579C371.398 503.804 371.308 509.537 372.367 520.625C371.368 520.069 370.681 519.683 370.333 518.536C367.437 509.004 368.006 501.377 371.708 492.579Z" fill="#BDCDE8"/>
<path d="M493.3 563.477C490.483 564.79 483.691 563.877 479.711 564.112C485.012 574.058 505.61 565.855 513.188 569.273C513.632 569.908 514.077 570.684 514.653 571.207C516.904 573.267 548.564 570.762 553.662 570.879C555.908 570.928 558.203 572.154 560.39 571.861C565.224 571.207 572.553 569.366 576.738 566.875C577.9 566.182 579.165 564.444 580.332 564.043C581.621 563.604 585.336 563.946 586.191 563.311C587.036 562.671 587.998 560.24 588.891 559.209L589.365 559.341C587.978 563.858 573.549 578.707 569.897 581.841C520.532 624.253 437.464 611.436 407.126 552.564C395.808 530.601 393.036 516.055 394.808 491.578C396.159 495.386 393.501 517.1 396.601 519.322C397.768 518.516 398.57 517.623 399.568 516.626C404.907 516.041 410.468 513.746 415.44 513.599C416.37 513.57 428.044 521.7 428.906 523.394C429.906 525.362 432.152 528.14 433.813 529.473C443.733 537.427 455.885 530.093 465.998 535.889C468.82 537.881 471.548 556.187 475.548 558.995C476.255 557.813 476.228 554.786 476.687 552.945L477.1 552.706C477.34 554.937 477.248 561.021 478.882 562.203C479.235 559.664 478.857 555.44 479.877 553.863C479.937 557.071 479.955 559.908 479.84 563.111C483.825 563.204 489.458 563.16 493.3 563.477Z" fill="#1960A9"/>
<path fill-rule="evenodd" clip-rule="evenodd" d="M569.457 466.424C569.457 466.424 569.457 466.424 569.457 466.424Z" fill="white"/>
<path d="M430.105 605.347C433.055 606.368 440.421 609.668 441.708 612.51C439.613 614.097 426.595 609.932 423.304 609.234C426.059 606.499 427.985 608.003 430.105 605.347Z" fill="#BDCDE8"/>
<path d="M386.845 433.635C390.667 430.939 394.455 428.196 398.207 425.405C397.268 427.007 391.702 435.842 390.49 437.091C389.694 435.413 388.385 434.746 386.845 433.635Z" fill="#BDCDE8"/>
<path d="M283.034 315.691C296.258 308.866 322.494 301.578 336.971 297.189C364.348 288.92 392.35 282.886 420.702 279.144C425.817 278.479 431.08 278.306 436.167 277.661C461.133 274.496 486.633 273.169 511.792 273.636C518.046 273.751 525.122 274.822 531.499 275.269C583.476 278.874 634.809 288.838 684.36 304.936C695.664 308.552 751.372 327.855 756.03 336.503C757.241 338.754 757.524 341.757 757.622 344.276C757.91 351.687 756.855 359.299 756.445 366.701C755.883 376.773 755.922 386.935 754.799 396.967C753.647 407.271 751.63 417.358 750.239 427.604C740.986 426.387 730.605 418.211 722.089 414.194C704.902 406.089 687.88 397.497 670.185 390.531C571.987 350.187 467.329 346.597 367.649 384.678C351.804 390.731 338.136 397.833 322.735 404.941C305.399 413.843 288.609 423.77 272.455 434.672C266.942 438.406 261.066 442.187 256.116 446.598C255.613 445.374 255.146 444.138 254.714 442.888C253.082 438.095 250.961 430.1 250.243 425.081C247.114 403.244 244.534 380.643 243.505 358.642C243.212 352.381 241.536 339.889 244.529 335.122C248.667 328.531 276.936 317.708 283.034 315.691Z" fill="#2760A3"/>
<path d="M256.116 446.598C255.613 445.374 255.146 444.138 254.714 442.888C253.082 438.095 250.961 430.1 250.243 425.081C247.114 403.244 244.534 380.643 243.505 358.642C243.212 352.381 241.536 339.889 244.529 335.122C248.667 328.531 276.936 317.708 283.034 315.691L283.137 316.363C281.59 317.267 279.066 317.9 278.79 318.621C279.441 319.361 279.973 319.619 279.862 320.33C279.571 322.207 277.217 325.78 276.173 327.444C277.112 329.514 277.91 330.781 277.93 333.042L277.582 333.746C276.654 333.005 277.067 333.43 276.739 331.849L276.344 331.952C276.681 335.105 276.863 339.694 276.364 343.194C274.912 353.402 280.749 355.957 285.891 363.229C288.702 367.204 290.886 377.497 292.964 382.32C296.709 390.196 292.342 402.101 300.638 407.497C301.972 407.124 302.67 406.9 303.998 406.387C305.411 408.197 304.906 408.127 306.716 408.703C311.57 407.166 316.019 403.916 321.752 404.128L322.735 404.941C305.399 413.843 288.609 423.77 272.455 434.672C266.942 438.406 261.066 442.187 256.116 446.598Z" fill="#152759"/>
<path d="M191.36 309.546C191.301 304.711 190.282 297.84 194.085 294.188C198.463 289.984 234.761 277.255 242.291 274.597C262.866 267.335 283.669 259.874 304.597 253.707C379.944 230.805 458.71 221.229 537.348 225.41C543.266 225.751 549.086 226.699 554.97 227.247C618.832 233.527 681.669 247.673 742.065 269.365C754.477 273.804 766.547 278.789 779.096 284.208C784.287 286.451 805.688 293.329 809.614 297.215C811.499 299.085 810.229 317.592 810.38 321.288C809.921 337.324 809.965 354.134 809.042 370.227C807.358 395.922 804.511 421.528 800.507 446.966C800.058 449.855 798.564 463.234 798.032 464.816C796.831 464.93 796.293 464.782 795.131 464.81L794.716 464.471C788.085 459.158 776.909 451.837 769.531 446.514C771.787 425.257 774.086 404.005 776.352 382.749C777.26 374.237 777.49 365.845 778.115 357.32C779.082 344.104 780.639 330.926 779.702 317.636C770.844 312.648 761.22 309.633 751.655 306.195C739.135 301.569 726.533 297.177 713.852 293.019C668.696 277.906 624.194 266.962 576.992 260.086C510.376 250.439 442.567 252.91 376.833 267.379C336.636 276.178 297.877 287.723 259.249 301.935C250.158 305.28 231.239 311.332 223.541 316.03C222.505 324.777 223.281 334.305 223.212 343.17C223.045 364.594 226.133 385.81 227.856 407.034C229.398 426.04 232.354 443.487 234.682 462.275C230.682 465.699 209.614 480.053 204.574 481.957C204.359 463.531 198.095 441.709 197.166 422.869C196.344 406.211 193.459 389.672 193.446 372.921C193.177 364.588 191.779 354.712 191.32 345.967C190.019 338.018 190.262 317.772 191.36 309.546Z" fill="#203875"/>
<path d="M191.36 309.546C191.83 322.163 193.425 333.552 191.32 345.967C190.019 338.018 190.262 317.772 191.36 309.546Z" fill="#5C637E"/>
<path d="M556.349 88.2666L573.512 88.2993L573.502 173.462L573.434 174.974C570.968 176.743 555.382 175.973 551.461 175.934C542.252 156.431 528.37 134.036 518.126 114.052L518.097 175.907L500.968 175.945L500.943 88.2598L523.404 88.3008C531.344 104.116 540.323 119.637 548.453 135.373C550.948 140.21 553.653 145.308 556.427 149.983C556.007 129.874 556.266 108.45 556.349 88.2666Z" fill="#203875"/>
<path fill-rule="evenodd" clip-rule="evenodd" d="M316.773 88.293L293.291 88.2988L274.361 146.184C273.492 148.83 272.577 151.555 271.649 154.316C269.229 161.521 266.726 168.972 264.752 175.898C266.725 175.899 268.737 175.911 270.762 175.923C275.258 175.95 279.821 175.977 284.178 175.882L290.718 154.77L319.708 154.74C321.326 158.079 324.164 166.97 325.991 172.692C326.398 173.968 326.755 175.087 327.037 175.951C329.062 175.942 331.151 175.948 333.264 175.954C338.127 175.967 343.117 175.98 347.735 175.821C340.073 154.838 332.638 133.586 325.225 112.399C322.408 104.348 319.595 96.3068 316.773 88.293ZM315.24 137.506C315.547 138.495 315.782 139.255 315.927 139.715L293.973 139.674L304.619 106.173C305.941 107.528 312.814 129.684 315.24 137.506Z" fill="#203875"/>
<path d="M235.104 88.2676L253.949 88.2915L253.964 175.89L235.203 175.942L235.244 140.034L201.691 140.05L201.662 175.887L183.027 175.955L183.056 88.2793L201.673 88.271L201.701 124.009L235.219 123.979L235.104 88.2676Z" fill="#203875"/>
<path d="M757.945 88.2617L813.585 88.2979L813.595 103.934L776.72 103.99L776.744 124.405L811.51 124.459L811.505 139.886C803.429 139.831 784.864 139.245 777.413 139.977C776.466 141.011 776.798 141.115 776.725 142.945L776.72 160.184L815.821 160.198L815.816 175.904L758.023 175.95L757.945 88.2617Z" fill="#203875"/>
<path d="M613.945 88.2656L669.556 88.2983L669.59 103.934L632.725 103.99L632.734 124.408L667.485 124.46V139.881C657.534 139.788 643.076 139.402 633.472 139.943C632.456 140.97 632.808 141.017 632.725 142.945V160.187L671.816 160.199V175.896L614.053 175.949L613.945 88.2656Z" fill="#203875"/>
<path d="M429.988 88.2637L485.661 88.29L485.676 103.937L448.688 103.982L448.698 124.413L483.461 124.453L483.448 139.873C478.744 139.846 450.968 139.172 448.896 140.508L448.704 141.968L448.696 160.181L487.794 160.192L487.789 175.891C468.835 176.171 449.051 175.932 430.042 175.945L429.988 88.2637Z" fill="#203875"/>
<path d="M340.572 88.3003L361.691 88.2734C367.535 110.017 375.271 136.954 382.012 158.315C388.865 135.017 395.552 111.67 402.075 88.2773L421.508 88.293C420.318 92.8638 418.662 97.7744 417.233 102.311C409.956 126.828 401.925 151.349 394.527 175.899L369 175.943L340.572 88.3003Z" fill="#203875"/>
<path d="M732.666 88.2983L751.582 88.3262L734.082 121.926C730.381 128.871 722.915 140.809 722.93 148.122C722.949 157.2 723.047 166.784 723.101 175.904L704.18 175.965C704.106 166.459 704.761 152.79 703.735 143.643C703.457 141.148 694.57 125.874 692.676 122.463C686.323 111.116 680.044 99.7266 673.838 88.2974L694.434 88.2773C700.688 100.682 707.261 114.019 713.906 126.149C720.249 113.574 726.255 100.857 732.666 88.2983Z" fill="#203875"/>
</svg>
